<svg width="80" height="80" viewBox="0 0 80 80" fill="none" xmlns="http://www.w3.org/2000/svg">
<g clip-path="url(#clip0_4859_3652)">
<path d="M0 38.8571C0 25.2559 0 18.4552 2.64698 13.2602C4.97534 8.69058 8.69058 4.97534 13.2602 2.64698C18.4552 0 25.2559 0 38.8571 0H41.1429C54.7441 0 61.5448 0 66.7398 2.64698C71.3094 4.97534 75.0247 8.69058 77.353 13.2602C80 18.4552 80 25.2559 80 38.8571V41.1429C80 54.7441 80 61.5448 77.353 66.7398C75.0247 71.3094 71.3094 75.0247 66.7398 77.353C61.5448 80 54.7441 80 41.1429 80H38.8571C25.2559 80 18.4552 80 13.2602 77.353C8.69058 75.0247 4.97534 71.3094 2.64698 66.7398C0 61.5448 0 54.7441 0 41.1429V38.8571Z" fill="#FFCD9F"/>
<path d="M57.5551 51.4527C56.1001 51.4527 54.763 51.941 53.6845 52.7541L49.1482 48.2183C51.0171 45.9075 52.1434 42.9705 52.1434 39.7744C52.1434 35.8869 50.4753 32.3903 47.8319 29.9317L51.9951 25.7693C52.9435 26.5459 54.1589 27.0129 55.48 27.0129C58.5217 27.0129 60.986 24.5474 60.986 21.5065C60.986 18.4656 58.5217 16 55.48 16C52.4383 16 49.9731 18.4655 49.9731 21.5065C49.9731 22.7757 50.4075 23.9416 51.1289 24.8726L46.88 29.1224C44.6071 27.3713 41.7732 26.3184 38.6893 26.3184C35.5162 26.3184 32.6006 27.4294 30.2976 29.2732L24.7003 23.6759C25.2995 22.9623 25.6617 22.043 25.6617 21.0389C25.6617 18.7721 23.8245 16.9353 21.5581 16.9353C19.2913 16.9353 17.4545 18.773 17.4545 21.0389C17.4545 23.3049 19.2917 25.1425 21.5581 25.1425C22.37 25.1425 23.1235 24.9038 23.7606 24.4981L29.3618 30.0985C26.8231 32.5471 25.2356 35.9755 25.2356 39.7729C25.2356 42.8181 26.2649 45.6216 27.9773 47.8797L24.1577 51.6994C23.291 50.8753 22.1217 50.3653 20.8311 50.3653C18.1628 50.3653 16 52.5292 16 55.1964C16 56.487 16.5088 57.6568 17.3333 58.5234C17.4768 58.6735 17.6277 58.8178 17.7894 58.9491C17.953 59.0818 18.1273 59.2009 18.3082 59.3118C19.0431 59.7636 19.9054 60.0276 20.8312 60.0276C23.4994 60.0276 25.6623 57.865 25.6623 55.1965C25.6623 54.2716 25.3975 53.4092 24.9461 52.6735L28.7801 48.8407C31.2417 51.5294 34.767 53.2274 38.6906 53.2274C42.465 53.2274 45.8747 51.6603 48.3207 49.149L52.7692 53.5975C51.7443 54.7376 51.119 56.2404 51.119 57.8947C51.119 61.4526 54.002 64.3356 57.5599 64.3356C61.1174 64.336 64 61.4529 64 57.8947C64 54.3354 61.113 51.4527 57.5551 51.4527ZM38.6863 51.9823C31.9548 51.9823 26.4789 46.5059 26.4789 39.7749C26.4789 33.043 31.9553 27.5664 38.6863 27.5664C45.4182 27.5664 50.8948 33.0428 50.8948 39.7749C50.8948 46.5064 45.4184 51.9823 38.6863 51.9823Z" fill="white"/>
<path d="M49.4028 39.7262C49.4028 45.6515 44.5995 50.4552 38.6738 50.4552C32.7486 50.4552 27.9453 45.6515 27.9453 39.7262C27.9453 33.8009 32.7486 28.9977 38.6738 28.9977C44.5994 28.9977 49.4028 33.8009 49.4028 39.7262Z" fill="#222222"/>
</g>
<defs>
<clipPath id="clip0_4859_3652">
<rect width="80" height="80" fill="white"/>
</clipPath>
</defs>
</svg>
