<svg width="80" height="80" viewBox="0 0 80 80" fill="none" xmlns="http://www.w3.org/2000/svg">
<g clip-path="url(#clip0_4860_3662)">
<mask id="mask0_4860_3662" style="mask-type:luminance" maskUnits="userSpaceOnUse" x="0" y="0" width="80" height="80">
<path d="M80 0H0V80H80V0Z" fill="white"/>
</mask>
<g mask="url(#mask0_4860_3662)">
<path d="M0 38.8571C0 25.2559 0 18.4552 2.64698 13.2602C4.97534 8.69058 8.69058 4.97534 13.2602 2.64698C18.4552 0 25.2559 0 38.8571 0H41.1429C54.7441 0 61.5448 0 66.7398 2.64698C71.3094 4.97534 75.0247 8.69058 77.353 13.2602C80 18.4552 80 25.2559 80 38.8571V41.1429C80 54.7441 80 61.5448 77.353 66.7398C75.0247 71.3094 71.3094 75.0247 66.7398 77.353C61.5448 80 54.7441 80 41.1429 80H38.8571C25.2559 80 18.4552 80 13.2602 77.353C8.69058 75.0247 4.97534 71.3094 2.64698 66.7398C0 61.5448 0 54.7441 0 41.1429V38.8571Z" fill="#B4DCFA"/>
<path fill-rule="evenodd" clip-rule="evenodd" d="M67.899 37.1914C69.1577 40.6526 69.7868 44.1134 69.7868 47.889C69.7868 51.6648 69.1576 55.126 67.899 58.5867L57.5156 54.1817C58.4594 52.2939 58.7743 50.0913 58.7743 47.8889C58.7743 45.6864 58.4597 43.4839 57.5156 41.596L67.899 37.1914Z" fill="white"/>
<path fill-rule="evenodd" clip-rule="evenodd" d="M52.1629 20.5162C58.7703 23.6628 64.1194 29.0115 67.2657 35.6189L56.8823 40.0238V39.3947L63.1752 31.8431L54.6799 36.2481C53.1065 34.0456 50.5895 32.1577 47.7578 30.899L52.1629 20.5162Z" fill="white"/>
<path fill-rule="evenodd" clip-rule="evenodd" d="M22.2712 41.596C21.3274 43.4839 21.0125 45.6864 21.0125 47.8889C21.0125 50.0913 21.3271 52.2938 22.2712 54.1817L11.8878 58.5867C10.6292 55.1255 10 51.6647 10 47.889C10 44.1133 10.6292 40.6521 11.8878 37.1914L22.2712 41.596Z" fill="white"/>
<path fill-rule="evenodd" clip-rule="evenodd" d="M32.0313 30.8988C27.9409 32.7867 24.7944 35.9333 22.9068 40.0233L12.5234 35.6184C15.67 29.011 21.0188 23.6619 27.6262 20.5156L32.0313 30.8988Z" fill="white"/>
<path fill-rule="evenodd" clip-rule="evenodd" d="M39.8933 18C43.6691 18 47.1302 18.6292 50.5909 19.8878L46.186 30.2712C44.2982 29.3274 42.0956 29.0125 39.8931 29.0125C37.6907 29.0125 35.4882 29.3271 33.6003 30.2712L29.1953 19.8878C32.6565 18.6292 36.1177 18 39.8933 18Z" fill="white"/>
<path fill-rule="evenodd" clip-rule="evenodd" d="M59.397 34.9886L51.8455 43.7988C49.3284 46.6305 46.811 49.4625 44.6086 52.2942C39.5741 59.2162 30.4495 50.4063 39.2595 45.6868L59.397 34.9886ZM39.8892 47.8888C41.4625 47.8888 42.4063 49.1475 42.4063 50.4059C42.4063 51.9792 41.4625 53.2376 39.8892 53.2376C38.3159 53.2376 37.3721 51.9789 37.3721 50.4059C37.3721 49.1472 38.3159 47.8888 39.8892 47.8888Z" fill="#222222"/>
</g>
</g>
<defs>
<clipPath id="clip0_4860_3662">
<rect width="80" height="80" fill="white"/>
</clipPath>
</defs>
</svg>
