<svg width="80" height="80" viewBox="0 0 80 80" fill="none" xmlns="http://www.w3.org/2000/svg">
<path d="M0 38.8571C0 25.2559 0 18.4552 2.64698 13.2602C4.97534 8.69058 8.69058 4.97534 13.2602 2.64698C18.4552 0 25.2559 0 38.8571 0H41.1429C54.7441 0 61.5448 0 66.7398 2.64698C71.3094 4.97534 75.0247 8.69058 77.353 13.2602C80 18.4552 80 25.2559 80 38.8571V41.1429C80 54.7441 80 61.5448 77.353 66.7398C75.0247 71.3094 71.3094 75.0247 66.7398 77.353C61.5448 80 54.7441 80 41.1429 80H38.8571C25.2559 80 18.4552 80 13.2602 77.353C8.69058 75.0247 4.97534 71.3094 2.64698 66.7398C0 61.5448 0 54.7441 0 41.1429V38.8571Z" fill="#E3B4FA"/>
<path fill-rule="evenodd" clip-rule="evenodd" d="M14 37L33 37L33 41L14 41L14 37Z" fill="#222222"/>
<path fill-rule="evenodd" clip-rule="evenodd" d="M46 37L65 37L65 41L46 41L46 37Z" fill="#222222"/>
<path fill-rule="evenodd" clip-rule="evenodd" d="M15.9998 27.9997L32.4496 35.6131L30.7695 39.2432L14.3197 31.6298L15.9998 27.9997Z" fill="#222222"/>
<path fill-rule="evenodd" clip-rule="evenodd" d="M30.1246 38.9998L15.0001 45.9998L16.6802 49.6299L31.8047 42.6299L30.1246 38.9998Z" fill="#222222"/>
<path d="M37.1677 23.9949L22 56L58 56L42.8323 23.9949C41.5718 21.335 38.4282 21.335 37.1677 23.9949Z" fill="white"/>
</svg>
